<mxfile host="app.diagrams.net" modified="2020-07-07T13:52:48.889Z" agent="5.0 (X11)" etag="PinaW-khjJdl_3EyTFhQ" version="13.3.9" type="github">
  <diagram id="O4Y_kGMGUPkg59ox-LyD" name="Page-1">
    <mxGraphModel dx="1035" dy="561" grid="1" gridSize="10" guides="1" tooltips="1" connect="1" arrows="1" fold="1" page="1" pageScale="1" pageWidth="827" pageHeight="1169" math="0" shadow="0">
      <root>
        <mxCell id="0" />
        <mxCell id="1" parent="0" />
        <mxCell id="HqpbCarrzdw9FyBz_RUs-45" style="edgeStyle=orthogonalEdgeStyle;rounded=0;orthogonalLoop=1;jettySize=auto;html=1;exitX=0.5;exitY=1;exitDx=0;exitDy=0;endArrow=none;endFill=0;" parent="1" source="HqpbCarrzdw9FyBz_RUs-5" target="HqpbCarrzdw9FyBz_RUs-39" edge="1">
          <mxGeometry relative="1" as="geometry" />
        </mxCell>
        <mxCell id="HqpbCarrzdw9FyBz_RUs-5" value="Sportif" style="swimlane;fontStyle=0;childLayout=stackLayout;horizontal=1;startSize=26;fillColor=none;horizontalStack=0;resizeParent=1;resizeParentMax=0;resizeLast=0;collapsible=1;marginBottom=0;" parent="1" vertex="1">
          <mxGeometry x="40" y="220" width="140" height="260" as="geometry" />
        </mxCell>
        <mxCell id="HqpbCarrzdw9FyBz_RUs-6" value="sportif_nom" style="text;strokeColor=none;fillColor=none;align=left;verticalAlign=top;spacingLeft=4;spacingRight=4;overflow=hidden;rotatable=0;points=[[0,0.5],[1,0.5]];portConstraint=eastwest;" parent="HqpbCarrzdw9FyBz_RUs-5" vertex="1">
          <mxGeometry y="26" width="140" height="26" as="geometry" />
        </mxCell>
        <mxCell id="HqpbCarrzdw9FyBz_RUs-7" value="sportif_prénom" style="text;strokeColor=none;fillColor=none;align=left;verticalAlign=top;spacingLeft=4;spacingRight=4;overflow=hidden;rotatable=0;points=[[0,0.5],[1,0.5]];portConstraint=eastwest;" parent="HqpbCarrzdw9FyBz_RUs-5" vertex="1">
          <mxGeometry y="52" width="140" height="26" as="geometry" />
        </mxCell>
        <mxCell id="HqpbCarrzdw9FyBz_RUs-8" value="sportif_adresse&#xa;&#xa;sportif_ville&#xa;&#xa;sportif_tél&#xa;&#xa;sportif_fax&#xa;&#xa;sportif_mail&#xa;&#xa;sportif_numdossard&#xa;" style="text;strokeColor=none;fillColor=none;align=left;verticalAlign=top;spacingLeft=4;spacingRight=4;overflow=hidden;rotatable=0;points=[[0,0.5],[1,0.5]];portConstraint=eastwest;" parent="HqpbCarrzdw9FyBz_RUs-5" vertex="1">
          <mxGeometry y="78" width="140" height="182" as="geometry" />
        </mxCell>
        <mxCell id="HqpbCarrzdw9FyBz_RUs-42" style="edgeStyle=orthogonalEdgeStyle;rounded=0;orthogonalLoop=1;jettySize=auto;html=1;exitX=0.5;exitY=1;exitDx=0;exitDy=0;entryX=0.5;entryY=0;entryDx=0;entryDy=0;endArrow=none;endFill=0;" parent="1" source="HqpbCarrzdw9FyBz_RUs-37" target="HqpbCarrzdw9FyBz_RUs-5" edge="1">
          <mxGeometry relative="1" as="geometry" />
        </mxCell>
        <mxCell id="HqpbCarrzdw9FyBz_RUs-37" value="fait partit" style="ellipse;whiteSpace=wrap;html=1;" parent="1" vertex="1">
          <mxGeometry x="76" y="120" width="68" height="60" as="geometry" />
        </mxCell>
        <mxCell id="HqpbCarrzdw9FyBz_RUs-1" value="Club" style="swimlane;fontStyle=0;childLayout=stackLayout;horizontal=1;startSize=26;fillColor=none;horizontalStack=0;resizeParent=1;resizeParentMax=0;resizeLast=0;collapsible=1;marginBottom=0;" parent="1" vertex="1">
          <mxGeometry x="40" width="140" height="78" as="geometry" />
        </mxCell>
        <mxCell id="HqpbCarrzdw9FyBz_RUs-2" value="club_id" style="text;strokeColor=none;fillColor=none;align=left;verticalAlign=top;spacingLeft=4;spacingRight=4;overflow=hidden;rotatable=0;points=[[0,0.5],[1,0.5]];portConstraint=eastwest;" parent="HqpbCarrzdw9FyBz_RUs-1" vertex="1">
          <mxGeometry y="26" width="140" height="26" as="geometry" />
        </mxCell>
        <mxCell id="HqpbCarrzdw9FyBz_RUs-3" value="club_nom" style="text;strokeColor=none;fillColor=none;align=left;verticalAlign=top;spacingLeft=4;spacingRight=4;overflow=hidden;rotatable=0;points=[[0,0.5],[1,0.5]];portConstraint=eastwest;" parent="HqpbCarrzdw9FyBz_RUs-1" vertex="1">
          <mxGeometry y="52" width="140" height="26" as="geometry" />
        </mxCell>
        <mxCell id="HqpbCarrzdw9FyBz_RUs-46" value="" style="edgeStyle=orthogonalEdgeStyle;rounded=0;orthogonalLoop=1;jettySize=auto;html=1;endArrow=none;endFill=0;" parent="1" source="HqpbCarrzdw9FyBz_RUs-39" target="HqpbCarrzdw9FyBz_RUs-10" edge="1">
          <mxGeometry relative="1" as="geometry" />
        </mxCell>
        <mxCell id="HqpbCarrzdw9FyBz_RUs-39" value="possède un" style="ellipse;whiteSpace=wrap;html=1;" parent="1" vertex="1">
          <mxGeometry x="75" y="555" width="70" height="60" as="geometry" />
        </mxCell>
        <mxCell id="HqpbCarrzdw9FyBz_RUs-21" value="Inscription" style="swimlane;fontStyle=0;childLayout=stackLayout;horizontal=1;startSize=26;fillColor=none;horizontalStack=0;resizeParent=1;resizeParentMax=0;resizeLast=0;collapsible=1;marginBottom=0;" parent="1" vertex="1">
          <mxGeometry x="380" y="50" width="140" height="110" as="geometry" />
        </mxCell>
        <mxCell id="HqpbCarrzdw9FyBz_RUs-23" value="sportif_numdossard" style="text;strokeColor=none;fillColor=none;align=left;verticalAlign=top;spacingLeft=4;spacingRight=4;overflow=hidden;rotatable=0;points=[[0,0.5],[1,0.5]];portConstraint=eastwest;" parent="HqpbCarrzdw9FyBz_RUs-21" vertex="1">
          <mxGeometry y="26" width="140" height="26" as="geometry" />
        </mxCell>
        <mxCell id="HqpbCarrzdw9FyBz_RUs-24" value="compétition_nom&#xa;&#xa;sportif_nom&#xa;" style="text;strokeColor=none;fillColor=none;align=left;verticalAlign=top;spacingLeft=4;spacingRight=4;overflow=hidden;rotatable=0;points=[[0,0.5],[1,0.5]];portConstraint=eastwest;" parent="HqpbCarrzdw9FyBz_RUs-21" vertex="1">
          <mxGeometry y="52" width="140" height="58" as="geometry" />
        </mxCell>
        <mxCell id="HqpbCarrzdw9FyBz_RUs-9" value="Certificat médical " style="swimlane;fontStyle=0;childLayout=stackLayout;horizontal=1;startSize=26;fillColor=none;horizontalStack=0;resizeParent=1;resizeParentMax=0;resizeLast=0;collapsible=1;marginBottom=0;" parent="1" vertex="1">
          <mxGeometry x="40" y="660" width="140" height="104" as="geometry" />
        </mxCell>
        <mxCell id="HqpbCarrzdw9FyBz_RUs-10" value="certificat_médical&#xa;" style="text;strokeColor=none;fillColor=none;align=left;verticalAlign=top;spacingLeft=4;spacingRight=4;overflow=hidden;rotatable=0;points=[[0,0.5],[1,0.5]];portConstraint=eastwest;" parent="HqpbCarrzdw9FyBz_RUs-9" vertex="1">
          <mxGeometry y="26" width="140" height="26" as="geometry" />
        </mxCell>
        <mxCell id="HqpbCarrzdw9FyBz_RUs-11" value="certificat_date" style="text;strokeColor=none;fillColor=none;align=left;verticalAlign=top;spacingLeft=4;spacingRight=4;overflow=hidden;rotatable=0;points=[[0,0.5],[1,0.5]];portConstraint=eastwest;" parent="HqpbCarrzdw9FyBz_RUs-9" vertex="1">
          <mxGeometry y="52" width="140" height="26" as="geometry" />
        </mxCell>
        <mxCell id="HqpbCarrzdw9FyBz_RUs-12" value="certificat_medecin" style="text;strokeColor=none;fillColor=none;align=left;verticalAlign=top;spacingLeft=4;spacingRight=4;overflow=hidden;rotatable=0;points=[[0,0.5],[1,0.5]];portConstraint=eastwest;" parent="HqpbCarrzdw9FyBz_RUs-9" vertex="1">
          <mxGeometry y="78" width="140" height="26" as="geometry" />
        </mxCell>
        <mxCell id="HqpbCarrzdw9FyBz_RUs-44" style="edgeStyle=orthogonalEdgeStyle;rounded=0;orthogonalLoop=1;jettySize=auto;html=1;entryX=0;entryY=0.5;entryDx=0;entryDy=0;endArrow=none;endFill=0;" parent="1" source="HqpbCarrzdw9FyBz_RUs-40" target="HqpbCarrzdw9FyBz_RUs-23" edge="1">
          <mxGeometry relative="1" as="geometry" />
        </mxCell>
        <mxCell id="HqpbCarrzdw9FyBz_RUs-47" style="edgeStyle=orthogonalEdgeStyle;rounded=0;orthogonalLoop=1;jettySize=auto;html=1;exitX=1;exitY=0.5;exitDx=0;exitDy=0;entryX=0;entryY=0.5;entryDx=0;entryDy=0;endArrow=none;endFill=0;" parent="1" source="HqpbCarrzdw9FyBz_RUs-40" target="HqpbCarrzdw9FyBz_RUs-14" edge="1">
          <mxGeometry relative="1" as="geometry" />
        </mxCell>
        <mxCell id="HqpbCarrzdw9FyBz_RUs-48" style="edgeStyle=orthogonalEdgeStyle;rounded=0;orthogonalLoop=1;jettySize=auto;html=1;exitX=0;exitY=0.5;exitDx=0;exitDy=0;entryX=1;entryY=0.5;entryDx=0;entryDy=0;endArrow=none;endFill=0;" parent="1" source="HqpbCarrzdw9FyBz_RUs-40" target="HqpbCarrzdw9FyBz_RUs-5" edge="1">
          <mxGeometry relative="1" as="geometry" />
        </mxCell>
        <mxCell id="HqpbCarrzdw9FyBz_RUs-40" value="s&#39;inscrit" style="ellipse;whiteSpace=wrap;html=1;" parent="1" vertex="1">
          <mxGeometry x="220" y="283" width="80" height="67" as="geometry" />
        </mxCell>
        <mxCell id="WY4ZJMlsSAvms_a7chS0-2" style="edgeStyle=orthogonalEdgeStyle;rounded=0;orthogonalLoop=1;jettySize=auto;html=1;exitX=0;exitY=0.5;exitDx=0;exitDy=0;entryX=1;entryY=0.5;entryDx=0;entryDy=0;startArrow=none;startFill=0;endArrow=none;endFill=0;" parent="1" source="HqpbCarrzdw9FyBz_RUs-41" target="HqpbCarrzdw9FyBz_RUs-14" edge="1">
          <mxGeometry relative="1" as="geometry" />
        </mxCell>
        <mxCell id="HqpbCarrzdw9FyBz_RUs-41" value="composé" style="ellipse;whiteSpace=wrap;html=1;" parent="1" vertex="1">
          <mxGeometry x="530" y="283" width="80" height="70" as="geometry" />
        </mxCell>
        <mxCell id="HqpbCarrzdw9FyBz_RUs-13" value="Compétition" style="swimlane;fontStyle=0;childLayout=stackLayout;horizontal=1;startSize=26;fillColor=none;horizontalStack=0;resizeParent=1;resizeParentMax=0;resizeLast=0;collapsible=1;marginBottom=0;" parent="1" vertex="1">
          <mxGeometry x="350" y="283" width="140" height="104" as="geometry" />
        </mxCell>
        <mxCell id="HqpbCarrzdw9FyBz_RUs-14" value="compétition_nom" style="text;strokeColor=none;fillColor=none;align=left;verticalAlign=top;spacingLeft=4;spacingRight=4;overflow=hidden;rotatable=0;points=[[0,0.5],[1,0.5]];portConstraint=eastwest;" parent="HqpbCarrzdw9FyBz_RUs-13" vertex="1">
          <mxGeometry y="26" width="140" height="26" as="geometry" />
        </mxCell>
        <mxCell id="HqpbCarrzdw9FyBz_RUs-15" value="compétition_lieu" style="text;strokeColor=none;fillColor=none;align=left;verticalAlign=top;spacingLeft=4;spacingRight=4;overflow=hidden;rotatable=0;points=[[0,0.5],[1,0.5]];portConstraint=eastwest;" parent="HqpbCarrzdw9FyBz_RUs-13" vertex="1">
          <mxGeometry y="52" width="140" height="26" as="geometry" />
        </mxCell>
        <mxCell id="HqpbCarrzdw9FyBz_RUs-16" value="compétition_date" style="text;strokeColor=none;fillColor=none;align=left;verticalAlign=top;spacingLeft=4;spacingRight=4;overflow=hidden;rotatable=0;points=[[0,0.5],[1,0.5]];portConstraint=eastwest;" parent="HqpbCarrzdw9FyBz_RUs-13" vertex="1">
          <mxGeometry y="78" width="140" height="26" as="geometry" />
        </mxCell>
        <mxCell id="HqpbCarrzdw9FyBz_RUs-43" style="edgeStyle=orthogonalEdgeStyle;rounded=0;orthogonalLoop=1;jettySize=auto;html=1;entryX=0.5;entryY=0;entryDx=0;entryDy=0;endArrow=none;endFill=0;" parent="1" source="HqpbCarrzdw9FyBz_RUs-2" target="HqpbCarrzdw9FyBz_RUs-37" edge="1">
          <mxGeometry relative="1" as="geometry">
            <Array as="points">
              <mxPoint x="20" y="39" />
              <mxPoint x="20" y="98" />
              <mxPoint x="110" y="98" />
            </Array>
          </mxGeometry>
        </mxCell>
        <mxCell id="HqpbCarrzdw9FyBz_RUs-17" value="Epreuves" style="swimlane;fontStyle=0;childLayout=stackLayout;horizontal=1;startSize=26;fillColor=none;horizontalStack=0;resizeParent=1;resizeParentMax=0;resizeLast=0;collapsible=1;marginBottom=0;" parent="1" vertex="1">
          <mxGeometry x="677" y="250" width="150" height="170" as="geometry" />
        </mxCell>
        <mxCell id="HqpbCarrzdw9FyBz_RUs-18" value="Épreuve_nom" style="text;strokeColor=none;fillColor=none;align=left;verticalAlign=top;spacingLeft=4;spacingRight=4;overflow=hidden;rotatable=0;points=[[0,0.5],[1,0.5]];portConstraint=eastwest;" parent="HqpbCarrzdw9FyBz_RUs-17" vertex="1">
          <mxGeometry y="26" width="150" height="26" as="geometry" />
        </mxCell>
        <mxCell id="HqpbCarrzdw9FyBz_RUs-19" value="Épreuve_date" style="text;strokeColor=none;fillColor=none;align=left;verticalAlign=top;spacingLeft=4;spacingRight=4;overflow=hidden;rotatable=0;points=[[0,0.5],[1,0.5]];portConstraint=eastwest;" parent="HqpbCarrzdw9FyBz_RUs-17" vertex="1">
          <mxGeometry y="52" width="150" height="26" as="geometry" />
        </mxCell>
        <mxCell id="HqpbCarrzdw9FyBz_RUs-20" value="Épreuve_nombre&#xa;&#xa;Épreuve_Distance&#xa;&#xa;Épreuve_condition&#xa;" style="text;strokeColor=none;fillColor=none;align=left;verticalAlign=top;spacingLeft=4;spacingRight=4;overflow=hidden;rotatable=0;points=[[0,0.5],[1,0.5]];portConstraint=eastwest;" parent="HqpbCarrzdw9FyBz_RUs-17" vertex="1">
          <mxGeometry y="78" width="150" height="92" as="geometry" />
        </mxCell>
        <mxCell id="WY4ZJMlsSAvms_a7chS0-1" style="edgeStyle=orthogonalEdgeStyle;rounded=0;orthogonalLoop=1;jettySize=auto;html=1;exitX=0;exitY=0.5;exitDx=0;exitDy=0;entryX=1;entryY=0.5;entryDx=0;entryDy=0;endArrow=none;endFill=0;" parent="1" source="HqpbCarrzdw9FyBz_RUs-19" target="HqpbCarrzdw9FyBz_RUs-41" edge="1">
          <mxGeometry relative="1" as="geometry" />
        </mxCell>
        <mxCell id="kSuKdx0LtlKnjD1aEwxK-3" value="1,1" style="text;html=1;align=center;verticalAlign=middle;resizable=0;points=[];autosize=1;" parent="1" vertex="1">
          <mxGeometry x="10" y="20" width="30" height="20" as="geometry" />
        </mxCell>
        <mxCell id="kSuKdx0LtlKnjD1aEwxK-4" value="0,n" style="text;html=1;align=center;verticalAlign=middle;resizable=0;points=[];autosize=1;" parent="1" vertex="1">
          <mxGeometry x="65" y="200" width="30" height="20" as="geometry" />
        </mxCell>
        <mxCell id="kSuKdx0LtlKnjD1aEwxK-6" value="1,1" style="text;html=1;align=center;verticalAlign=middle;resizable=0;points=[];autosize=1;" parent="1" vertex="1">
          <mxGeometry x="45" y="640" width="30" height="20" as="geometry" />
        </mxCell>
        <mxCell id="kSuKdx0LtlKnjD1aEwxK-7" value="0,1" style="text;html=1;align=center;verticalAlign=middle;resizable=0;points=[];autosize=1;" parent="1" vertex="1">
          <mxGeometry x="46" y="480" width="30" height="20" as="geometry" />
        </mxCell>
        <mxCell id="kSuKdx0LtlKnjD1aEwxK-8" value="1,n" style="text;html=1;align=center;verticalAlign=middle;resizable=0;points=[];autosize=1;" parent="1" vertex="1">
          <mxGeometry x="185" y="263" width="30" height="20" as="geometry" />
        </mxCell>
        <mxCell id="kSuKdx0LtlKnjD1aEwxK-9" value="1,n" style="text;html=1;align=center;verticalAlign=middle;resizable=0;points=[];autosize=1;" parent="1" vertex="1">
          <mxGeometry x="315" y="283" width="30" height="20" as="geometry" />
        </mxCell>
        <mxCell id="kSuKdx0LtlKnjD1aEwxK-10" value="1,n" style="text;html=1;align=center;verticalAlign=middle;resizable=0;points=[];autosize=1;" parent="1" vertex="1">
          <mxGeometry x="495" y="283" width="30" height="20" as="geometry" />
        </mxCell>
        <mxCell id="kSuKdx0LtlKnjD1aEwxK-11" value="n,n" style="text;html=1;align=center;verticalAlign=middle;resizable=0;points=[];autosize=1;" parent="1" vertex="1">
          <mxGeometry x="642" y="387" width="30" height="20" as="geometry" />
        </mxCell>
        <mxCell id="eV1IOAl0GrYnEvbsb-iy-1" value="Sportif(sportif_nom,....)" style="text;html=1;align=center;verticalAlign=middle;resizable=0;points=[];autosize=1;" vertex="1" parent="1">
          <mxGeometry x="240" y="440" width="160" height="20" as="geometry" />
        </mxCell>
        <mxCell id="eV1IOAl0GrYnEvbsb-iy-2" value="club(club_id,club_nom,#sportif_numdossard)" style="text;html=1;align=center;verticalAlign=middle;resizable=0;points=[];autosize=1;" vertex="1" parent="1">
          <mxGeometry x="230" y="460" width="290" height="20" as="geometry" />
        </mxCell>
        <mxCell id="eV1IOAl0GrYnEvbsb-iy-3" value="certificat médical(certificat_médical,....,#sportif_numdossard)" style="text;html=1;align=center;verticalAlign=middle;resizable=0;points=[];autosize=1;" vertex="1" parent="1">
          <mxGeometry x="220" y="480" width="390" height="20" as="geometry" />
        </mxCell>
        <mxCell id="eV1IOAl0GrYnEvbsb-iy-4" value="Inscription[sportif_numdossard,#compétition_nom,#sportif_nom)" style="text;html=1;align=center;verticalAlign=middle;resizable=0;points=[];autosize=1;" vertex="1" parent="1">
          <mxGeometry x="220" y="500" width="420" height="20" as="geometry" />
        </mxCell>
        <mxCell id="eV1IOAl0GrYnEvbsb-iy-7" value="Compétition(compétition_nom,.....)" style="text;html=1;align=center;verticalAlign=middle;resizable=0;points=[];autosize=1;" vertex="1" parent="1">
          <mxGeometry x="220" y="520" width="230" height="20" as="geometry" />
        </mxCell>
        <mxCell id="eV1IOAl0GrYnEvbsb-iy-8" value="composé(#compétition_nom,#Épreuves_nom)" style="text;html=1;align=center;verticalAlign=middle;resizable=0;points=[];autosize=1;" vertex="1" parent="1">
          <mxGeometry x="215" y="540" width="300" height="20" as="geometry" />
        </mxCell>
      </root>
    </mxGraphModel>
  </diagram>
</mxfile>
